<mxfile host="65bd71144e">
    <diagram id="H5wXAZP5nJlpL8v_rz8d" name="Final">
        <mxGraphModel dx="1515" dy="3085" grid="1" gridSize="10" guides="1" tooltips="1" connect="1" arrows="1" fold="1" page="1" pageScale="1" pageWidth="850" pageHeight="1100" math="0" shadow="0">
            <root>
                <mxCell id="0"/>
                <mxCell id="1" parent="0"/>
                <mxCell id="YEMjm-N8hcutYp_lY4FU-1" value="Account" style="whiteSpace=wrap;html=1;align=center;" parent="1" vertex="1">
                    <mxGeometry x="110" y="50" width="100" height="40" as="geometry"/>
                </mxCell>
                <mxCell id="YEMjm-N8hcutYp_lY4FU-2" value="1" style="edgeStyle=orthogonalEdgeStyle;rounded=0;orthogonalLoop=1;jettySize=auto;html=1;entryX=0.5;entryY=1;entryDx=0;entryDy=0;endArrow=none;endFill=0;" parent="1" source="YEMjm-N8hcutYp_lY4FU-3" target="YEMjm-N8hcutYp_lY4FU-26" edge="1">
                    <mxGeometry relative="1" as="geometry">
                        <mxPoint x="994.9999999999995" y="580" as="targetPoint"/>
                    </mxGeometry>
                </mxCell>
                <mxCell id="YEMjm-N8hcutYp_lY4FU-3" value="&lt;div&gt;Game&lt;/div&gt;" style="whiteSpace=wrap;html=1;align=center;" parent="1" vertex="1">
                    <mxGeometry x="730" y="460" width="100" height="40" as="geometry"/>
                </mxCell>
                <mxCell id="YEMjm-N8hcutYp_lY4FU-4" value="1" style="edgeStyle=orthogonalEdgeStyle;rounded=0;orthogonalLoop=1;jettySize=auto;html=1;exitX=0.5;exitY=0;exitDx=0;exitDy=0;entryX=0.5;entryY=1;entryDx=0;entryDy=0;endArrow=none;endFill=0;" parent="1" source="YEMjm-N8hcutYp_lY4FU-6" target="YEMjm-N8hcutYp_lY4FU-37" edge="1">
                    <mxGeometry relative="1" as="geometry"/>
                </mxCell>
                <mxCell id="YEMjm-N8hcutYp_lY4FU-5" value="1" style="edgeStyle=orthogonalEdgeStyle;rounded=0;orthogonalLoop=1;jettySize=auto;html=1;exitX=0;exitY=0.5;exitDx=0;exitDy=0;entryX=1;entryY=0.5;entryDx=0;entryDy=0;endArrow=none;endFill=0;" parent="1" source="YEMjm-N8hcutYp_lY4FU-6" target="YEMjm-N8hcutYp_lY4FU-39" edge="1">
                    <mxGeometry relative="1" as="geometry">
                        <Array as="points">
                            <mxPoint x="1090" y="-270"/>
                        </Array>
                    </mxGeometry>
                </mxCell>
                <mxCell id="YEMjm-N8hcutYp_lY4FU-6" value="Hero" style="whiteSpace=wrap;html=1;align=center;" parent="1" vertex="1">
                    <mxGeometry x="1460" y="-290" width="100" height="40" as="geometry"/>
                </mxCell>
                <mxCell id="YEMjm-N8hcutYp_lY4FU-7" value="Offensive" style="whiteSpace=wrap;html=1;align=center;" parent="1" vertex="1">
                    <mxGeometry x="1460" y="270" width="100" height="40" as="geometry"/>
                </mxCell>
                <mxCell id="YEMjm-N8hcutYp_lY4FU-8" value="Tank" style="whiteSpace=wrap;html=1;align=center;" parent="1" vertex="1">
                    <mxGeometry x="1330" y="270" width="100" height="40" as="geometry"/>
                </mxCell>
                <mxCell id="YEMjm-N8hcutYp_lY4FU-9" value="Support" style="whiteSpace=wrap;html=1;align=center;" parent="1" vertex="1">
                    <mxGeometry x="1590" y="270" width="100" height="40" as="geometry"/>
                </mxCell>
                <mxCell id="YEMjm-N8hcutYp_lY4FU-10" value="1" style="edgeStyle=orthogonalEdgeStyle;rounded=0;orthogonalLoop=1;jettySize=auto;html=1;entryX=1;entryY=0.5;entryDx=0;entryDy=0;endArrow=none;endFill=0;" parent="1" source="YEMjm-N8hcutYp_lY4FU-13" target="YEMjm-N8hcutYp_lY4FU-20" edge="1">
                    <mxGeometry relative="1" as="geometry"/>
                </mxCell>
                <mxCell id="YEMjm-N8hcutYp_lY4FU-11" value="1" style="edgeStyle=orthogonalEdgeStyle;rounded=0;orthogonalLoop=1;jettySize=auto;html=1;exitX=0.5;exitY=0;exitDx=0;exitDy=0;entryX=0.5;entryY=1;entryDx=0;entryDy=0;endArrow=none;endFill=0;" parent="1" source="YEMjm-N8hcutYp_lY4FU-13" target="YEMjm-N8hcutYp_lY4FU-29" edge="1">
                    <mxGeometry relative="1" as="geometry">
                        <Array as="points">
                            <mxPoint x="520" y="50"/>
                            <mxPoint x="520" y="-45"/>
                            <mxPoint x="580" y="-45"/>
                        </Array>
                    </mxGeometry>
                </mxCell>
                <mxCell id="YEMjm-N8hcutYp_lY4FU-12" value="m" style="edgeStyle=orthogonalEdgeStyle;rounded=0;orthogonalLoop=1;jettySize=auto;html=1;exitX=1;exitY=0.25;exitDx=0;exitDy=0;entryX=0;entryY=0.5;entryDx=0;entryDy=0;endArrow=none;endFill=0;" parent="1" source="YEMjm-N8hcutYp_lY4FU-13" target="YEMjm-N8hcutYp_lY4FU-47" edge="1">
                    <mxGeometry relative="1" as="geometry"/>
                </mxCell>
                <mxCell id="YEMjm-N8hcutYp_lY4FU-13" value="Player" style="whiteSpace=wrap;html=1;align=center;" parent="1" vertex="1">
                    <mxGeometry x="450" y="50" width="100" height="40" as="geometry"/>
                </mxCell>
                <mxCell id="YEMjm-N8hcutYp_lY4FU-14" value="m" style="edgeStyle=orthogonalEdgeStyle;rounded=0;orthogonalLoop=1;jettySize=auto;html=1;exitX=0.5;exitY=1;exitDx=0;exitDy=0;entryX=0.5;entryY=0;entryDx=0;entryDy=0;endArrow=none;endFill=0;" parent="1" source="YEMjm-N8hcutYp_lY4FU-15" target="YEMjm-N8hcutYp_lY4FU-37" edge="1">
                    <mxGeometry relative="1" as="geometry"/>
                </mxCell>
                <mxCell id="YEMjm-N8hcutYp_lY4FU-15" value="HeroAbility" style="whiteSpace=wrap;html=1;align=center;" parent="1" vertex="1">
                    <mxGeometry x="1460" y="-540" width="100" height="40" as="geometry"/>
                </mxCell>
                <mxCell id="YEMjm-N8hcutYp_lY4FU-16" value="1" style="edgeStyle=orthogonalEdgeStyle;rounded=0;orthogonalLoop=1;jettySize=auto;html=1;exitX=1;exitY=0.5;exitDx=0;exitDy=0;entryX=0;entryY=0.5;entryDx=0;entryDy=0;endArrow=none;endFill=0;" parent="1" source="YEMjm-N8hcutYp_lY4FU-17" target="YEMjm-N8hcutYp_lY4FU-31" edge="1">
                    <mxGeometry relative="1" as="geometry"/>
                </mxCell>
                <mxCell id="YEMjm-N8hcutYp_lY4FU-17" value="Team" style="whiteSpace=wrap;html=1;align=center;" parent="1" vertex="1">
                    <mxGeometry x="730" y="260" width="100" height="40" as="geometry"/>
                </mxCell>
                <mxCell id="YEMjm-N8hcutYp_lY4FU-18" value="n" style="edgeStyle=orthogonalEdgeStyle;rounded=0;orthogonalLoop=1;jettySize=auto;html=1;exitX=0;exitY=0.5;exitDx=0;exitDy=0;entryX=0.5;entryY=0;entryDx=0;entryDy=0;endArrow=none;endFill=0;" parent="1" source="YEMjm-N8hcutYp_lY4FU-19" target="YEMjm-N8hcutYp_lY4FU-41" edge="1">
                    <mxGeometry relative="1" as="geometry"/>
                </mxCell>
                <mxCell id="YEMjm-N8hcutYp_lY4FU-19" value="Skin" style="whiteSpace=wrap;html=1;align=center;" parent="1" vertex="1">
                    <mxGeometry x="450" y="-290" width="100" height="40" as="geometry"/>
                </mxCell>
                <mxCell id="YEMjm-N8hcutYp_lY4FU-20" value="is" style="shape=rhombus;perimeter=rhombusPerimeter;whiteSpace=wrap;html=1;align=center;" parent="1" vertex="1">
                    <mxGeometry x="270" y="40" width="120" height="60" as="geometry"/>
                </mxCell>
                <mxCell id="YEMjm-N8hcutYp_lY4FU-21" value="1" style="edgeStyle=orthogonalEdgeStyle;rounded=0;orthogonalLoop=1;jettySize=auto;html=1;entryX=1;entryY=0.5;entryDx=0;entryDy=0;endArrow=none;endFill=0;" parent="1" target="YEMjm-N8hcutYp_lY4FU-1" edge="1">
                    <mxGeometry relative="1" as="geometry">
                        <mxPoint x="270" y="70" as="sourcePoint"/>
                        <mxPoint x="200" y="69.5" as="targetPoint"/>
                    </mxGeometry>
                </mxCell>
                <mxCell id="YEMjm-N8hcutYp_lY4FU-22" value="m" style="edgeStyle=orthogonalEdgeStyle;rounded=0;orthogonalLoop=1;jettySize=auto;html=1;endArrow=none;endFill=0;exitX=0.5;exitY=0;exitDx=0;exitDy=0;entryX=0.5;entryY=1;entryDx=0;entryDy=0;" parent="1" source="YEMjm-N8hcutYp_lY4FU-24" target="YEMjm-N8hcutYp_lY4FU-13" edge="1">
                    <mxGeometry relative="1" as="geometry">
                        <mxPoint x="520" y="180" as="sourcePoint"/>
                        <mxPoint x="500" y="80" as="targetPoint"/>
                        <Array as="points">
                            <mxPoint x="500" y="100"/>
                            <mxPoint x="500" y="100"/>
                        </Array>
                    </mxGeometry>
                </mxCell>
                <mxCell id="YEMjm-N8hcutYp_lY4FU-23" value="1" style="edgeStyle=orthogonalEdgeStyle;rounded=0;orthogonalLoop=1;jettySize=auto;html=1;entryX=0;entryY=0.5;entryDx=0;entryDy=0;endArrow=none;endFill=0;" parent="1" source="YEMjm-N8hcutYp_lY4FU-24" target="YEMjm-N8hcutYp_lY4FU-17" edge="1">
                    <mxGeometry relative="1" as="geometry"/>
                </mxCell>
                <mxCell id="YEMjm-N8hcutYp_lY4FU-24" value="is in" style="shape=rhombus;perimeter=rhombusPerimeter;whiteSpace=wrap;html=1;align=center;" parent="1" vertex="1">
                    <mxGeometry x="440" y="250" width="120" height="60" as="geometry"/>
                </mxCell>
                <mxCell id="YEMjm-N8hcutYp_lY4FU-25" value="m" style="edgeStyle=orthogonalEdgeStyle;rounded=0;orthogonalLoop=1;jettySize=auto;html=1;endArrow=none;endFill=0;entryX=0.5;entryY=1;entryDx=0;entryDy=0;" parent="1" source="YEMjm-N8hcutYp_lY4FU-26" target="YEMjm-N8hcutYp_lY4FU-17" edge="1">
                    <mxGeometry relative="1" as="geometry">
                        <mxPoint x="710" y="370" as="targetPoint"/>
                    </mxGeometry>
                </mxCell>
                <mxCell id="YEMjm-N8hcutYp_lY4FU-26" value="has" style="shape=rhombus;perimeter=rhombusPerimeter;whiteSpace=wrap;html=1;align=center;" parent="1" vertex="1">
                    <mxGeometry x="720" y="350" width="120" height="60" as="geometry"/>
                </mxCell>
                <mxCell id="YEMjm-N8hcutYp_lY4FU-27" value="1" style="edgeStyle=orthogonalEdgeStyle;rounded=0;orthogonalLoop=1;jettySize=auto;html=1;endArrow=none;endFill=0;entryX=0;entryY=0.5;entryDx=0;entryDy=0;exitX=1;exitY=0.5;exitDx=0;exitDy=0;" parent="1" source="YEMjm-N8hcutYp_lY4FU-50" target="YEMjm-N8hcutYp_lY4FU-6" edge="1">
                    <mxGeometry x="0.2" relative="1" as="geometry">
                        <Array as="points">
                            <mxPoint x="1350" y="-160"/>
                            <mxPoint x="1350" y="-260"/>
                            <mxPoint x="1460" y="-260"/>
                        </Array>
                        <mxPoint x="1220" y="-100" as="sourcePoint"/>
                        <mxPoint as="offset"/>
                    </mxGeometry>
                </mxCell>
                <mxCell id="YEMjm-N8hcutYp_lY4FU-28" value="1" style="edgeStyle=orthogonalEdgeStyle;rounded=0;orthogonalLoop=1;jettySize=auto;html=1;exitX=1;exitY=0.5;exitDx=0;exitDy=0;entryX=0;entryY=0.5;entryDx=0;entryDy=0;endArrow=none;endFill=0;" parent="1" source="YEMjm-N8hcutYp_lY4FU-29" target="YEMjm-N8hcutYp_lY4FU-49" edge="1">
                    <mxGeometry relative="1" as="geometry">
                        <Array as="points"/>
                    </mxGeometry>
                </mxCell>
                <mxCell id="YEMjm-N8hcutYp_lY4FU-29" value="selected" style="shape=rhombus;perimeter=rhombusPerimeter;whiteSpace=wrap;html=1;align=center;" parent="1" vertex="1">
                    <mxGeometry x="520" y="-150" width="120" height="60" as="geometry"/>
                </mxCell>
                <mxCell id="YEMjm-N8hcutYp_lY4FU-30" value="m" style="edgeStyle=orthogonalEdgeStyle;rounded=0;orthogonalLoop=1;jettySize=auto;html=1;exitX=0.5;exitY=0;exitDx=0;exitDy=0;entryX=0.5;entryY=1;entryDx=0;entryDy=0;endArrow=none;endFill=0;" parent="1" source="YEMjm-N8hcutYp_lY4FU-31" target="YEMjm-N8hcutYp_lY4FU-49" edge="1">
                    <mxGeometry x="-0.2308" relative="1" as="geometry">
                        <Array as="points">
                            <mxPoint x="1030" y="50"/>
                            <mxPoint x="1030" y="50"/>
                        </Array>
                        <mxPoint as="offset"/>
                    </mxGeometry>
                </mxCell>
                <mxCell id="YEMjm-N8hcutYp_lY4FU-31" value="has" style="shape=rhombus;perimeter=rhombusPerimeter;whiteSpace=wrap;html=1;align=center;" parent="1" vertex="1">
                    <mxGeometry x="970" y="250" width="120" height="60" as="geometry"/>
                </mxCell>
                <mxCell id="YEMjm-N8hcutYp_lY4FU-32" style="edgeStyle=orthogonalEdgeStyle;rounded=0;orthogonalLoop=1;jettySize=auto;html=1;exitX=0.5;exitY=0;exitDx=0;exitDy=0;endArrow=none;endFill=0;shape=link;entryX=0.5;entryY=1;entryDx=0;entryDy=0;" parent="1" source="YEMjm-N8hcutYp_lY4FU-36" target="YEMjm-N8hcutYp_lY4FU-42" edge="1">
                    <mxGeometry relative="1" as="geometry">
                        <mxPoint x="1580" y="120" as="targetPoint"/>
                    </mxGeometry>
                </mxCell>
                <mxCell id="YEMjm-N8hcutYp_lY4FU-33" style="edgeStyle=orthogonalEdgeStyle;rounded=0;orthogonalLoop=1;jettySize=auto;html=1;exitX=0.5;exitY=1;exitDx=0;exitDy=0;entryX=0.5;entryY=0;entryDx=0;entryDy=0;" parent="1" source="YEMjm-N8hcutYp_lY4FU-36" target="YEMjm-N8hcutYp_lY4FU-7" edge="1">
                    <mxGeometry relative="1" as="geometry">
                        <Array as="points"/>
                    </mxGeometry>
                </mxCell>
                <mxCell id="YEMjm-N8hcutYp_lY4FU-34" style="edgeStyle=orthogonalEdgeStyle;rounded=0;orthogonalLoop=1;jettySize=auto;html=1;exitX=0;exitY=0.5;exitDx=0;exitDy=0;" parent="1" source="YEMjm-N8hcutYp_lY4FU-36" target="YEMjm-N8hcutYp_lY4FU-8" edge="1">
                    <mxGeometry relative="1" as="geometry">
                        <Array as="points">
                            <mxPoint x="1380" y="150"/>
                        </Array>
                    </mxGeometry>
                </mxCell>
                <mxCell id="YEMjm-N8hcutYp_lY4FU-35" style="edgeStyle=orthogonalEdgeStyle;rounded=0;orthogonalLoop=1;jettySize=auto;html=1;exitX=1;exitY=0.5;exitDx=0;exitDy=0;entryX=0.5;entryY=0;entryDx=0;entryDy=0;" parent="1" source="YEMjm-N8hcutYp_lY4FU-36" target="YEMjm-N8hcutYp_lY4FU-9" edge="1">
                    <mxGeometry relative="1" as="geometry">
                        <Array as="points">
                            <mxPoint x="1640" y="150"/>
                        </Array>
                    </mxGeometry>
                </mxCell>
                <mxCell id="YEMjm-N8hcutYp_lY4FU-36" value="d" style="ellipse;whiteSpace=wrap;html=1;aspect=fixed;" parent="1" vertex="1">
                    <mxGeometry x="1490" y="130" width="40" height="40" as="geometry"/>
                </mxCell>
                <mxCell id="YEMjm-N8hcutYp_lY4FU-37" value="has" style="shape=rhombus;perimeter=rhombusPerimeter;whiteSpace=wrap;html=1;align=center;" parent="1" vertex="1">
                    <mxGeometry x="1450" y="-420" width="120" height="60" as="geometry"/>
                </mxCell>
                <mxCell id="YEMjm-N8hcutYp_lY4FU-38" value="m" style="edgeStyle=orthogonalEdgeStyle;rounded=0;orthogonalLoop=1;jettySize=auto;html=1;exitX=0;exitY=0.5;exitDx=0;exitDy=0;entryX=1;entryY=0.5;entryDx=0;entryDy=0;endArrow=none;endFill=0;" parent="1" source="YEMjm-N8hcutYp_lY4FU-39" target="YEMjm-N8hcutYp_lY4FU-19" edge="1">
                    <mxGeometry x="0.0002" relative="1" as="geometry">
                        <Array as="points">
                            <mxPoint x="930" y="-270"/>
                            <mxPoint x="930" y="-270"/>
                        </Array>
                        <mxPoint as="offset"/>
                    </mxGeometry>
                </mxCell>
                <mxCell id="YEMjm-N8hcutYp_lY4FU-39" value="has" style="shape=rhombus;perimeter=rhombusPerimeter;whiteSpace=wrap;html=1;align=center;" parent="1" vertex="1">
                    <mxGeometry x="970" y="-300" width="120" height="60" as="geometry"/>
                </mxCell>
                <mxCell id="YEMjm-N8hcutYp_lY4FU-40" value="m" style="edgeStyle=orthogonalEdgeStyle;rounded=0;orthogonalLoop=1;jettySize=auto;html=1;exitX=0.5;exitY=1;exitDx=0;exitDy=0;entryX=0.25;entryY=0;entryDx=0;entryDy=0;endArrow=none;endFill=0;" parent="1" source="YEMjm-N8hcutYp_lY4FU-41" target="YEMjm-N8hcutYp_lY4FU-13" edge="1">
                    <mxGeometry relative="1" as="geometry">
                        <Array as="points">
                            <mxPoint x="420" y="-40"/>
                            <mxPoint x="475" y="-40"/>
                        </Array>
                    </mxGeometry>
                </mxCell>
                <mxCell id="YEMjm-N8hcutYp_lY4FU-41" value="selected" style="shape=rhombus;perimeter=rhombusPerimeter;whiteSpace=wrap;html=1;align=center;" parent="1" vertex="1">
                    <mxGeometry x="360" y="-150" width="120" height="60" as="geometry"/>
                </mxCell>
                <mxCell id="YEMjm-N8hcutYp_lY4FU-42" value="HeroType" style="whiteSpace=wrap;html=1;align=center;" parent="1" vertex="1">
                    <mxGeometry x="1460" y="40" width="100" height="40" as="geometry"/>
                </mxCell>
                <mxCell id="YEMjm-N8hcutYp_lY4FU-43" value="m" style="edgeStyle=orthogonalEdgeStyle;rounded=0;orthogonalLoop=1;jettySize=auto;html=1;exitX=0.5;exitY=0;exitDx=0;exitDy=0;entryX=0.5;entryY=1;entryDx=0;entryDy=0;endArrow=none;endFill=0;" parent="1" source="YEMjm-N8hcutYp_lY4FU-45" target="YEMjm-N8hcutYp_lY4FU-6" edge="1">
                    <mxGeometry relative="1" as="geometry"/>
                </mxCell>
                <mxCell id="YEMjm-N8hcutYp_lY4FU-44" value="1" style="edgeStyle=orthogonalEdgeStyle;rounded=0;orthogonalLoop=1;jettySize=auto;html=1;exitX=0.5;exitY=1;exitDx=0;exitDy=0;entryX=0.5;entryY=0;entryDx=0;entryDy=0;endArrow=none;endFill=0;" parent="1" source="YEMjm-N8hcutYp_lY4FU-45" target="YEMjm-N8hcutYp_lY4FU-42" edge="1">
                    <mxGeometry relative="1" as="geometry"/>
                </mxCell>
                <mxCell id="YEMjm-N8hcutYp_lY4FU-45" value="is of" style="shape=rhombus;perimeter=rhombusPerimeter;whiteSpace=wrap;html=1;align=center;" parent="1" vertex="1">
                    <mxGeometry x="1450" y="-160" width="120" height="60" as="geometry"/>
                </mxCell>
                <mxCell id="YEMjm-N8hcutYp_lY4FU-46" value="1" style="edgeStyle=orthogonalEdgeStyle;rounded=0;orthogonalLoop=1;jettySize=auto;html=1;exitX=1;exitY=0.5;exitDx=0;exitDy=0;entryX=0;entryY=0.5;entryDx=0;entryDy=0;endArrow=none;endFill=0;" parent="1" source="YEMjm-N8hcutYp_lY4FU-47" target="YEMjm-N8hcutYp_lY4FU-42" edge="1">
                    <mxGeometry relative="1" as="geometry">
                        <Array as="points">
                            <mxPoint x="930" y="60"/>
                            <mxPoint x="930" y="60"/>
                        </Array>
                    </mxGeometry>
                </mxCell>
                <mxCell id="YEMjm-N8hcutYp_lY4FU-47" value="selected" style="shape=rhombus;perimeter=rhombusPerimeter;whiteSpace=wrap;html=1;align=center;" parent="1" vertex="1">
                    <mxGeometry x="720" y="30" width="120" height="60" as="geometry"/>
                </mxCell>
                <mxCell id="YEMjm-N8hcutYp_lY4FU-48" value="m" style="edgeStyle=orthogonalEdgeStyle;rounded=0;orthogonalLoop=1;jettySize=auto;html=1;entryX=0;entryY=0.5;entryDx=0;entryDy=0;endArrow=none;endFill=0;exitX=1;exitY=0.5;exitDx=0;exitDy=0;" parent="1" source="YEMjm-N8hcutYp_lY4FU-49" target="YEMjm-N8hcutYp_lY4FU-50" edge="1">
                    <mxGeometry relative="1" as="geometry">
                        <Array as="points">
                            <mxPoint x="1100" y="-120"/>
                            <mxPoint x="1100" y="-120"/>
                        </Array>
                        <mxPoint x="1050" y="-70" as="sourcePoint"/>
                    </mxGeometry>
                </mxCell>
                <mxCell id="YEMjm-N8hcutYp_lY4FU-49" value="Player_Hero" style="whiteSpace=wrap;html=1;align=center;" parent="1" vertex="1">
                    <mxGeometry x="980" y="-140" width="100" height="40" as="geometry"/>
                </mxCell>
                <mxCell id="YEMjm-N8hcutYp_lY4FU-50" value="selected" style="shape=rhombus;perimeter=rhombusPerimeter;whiteSpace=wrap;html=1;align=center;" parent="1" vertex="1">
                    <mxGeometry x="1140" y="-150" width="120" height="60" as="geometry"/>
                </mxCell>
                <mxCell id="YEMjm-N8hcutYp_lY4FU-51" value="m" style="edgeStyle=orthogonalEdgeStyle;rounded=0;orthogonalLoop=1;jettySize=auto;html=1;endArrow=none;endFill=0;exitX=0.5;exitY=1;exitDx=0;exitDy=0;" parent="1" source="YEMjm-N8hcutYp_lY4FU-3" target="YEMjm-N8hcutYp_lY4FU-61" edge="1">
                    <mxGeometry relative="1" as="geometry">
                        <mxPoint x="1570" y="720" as="sourcePoint"/>
                    </mxGeometry>
                </mxCell>
                <mxCell id="YEMjm-N8hcutYp_lY4FU-52" value="1" style="edgeStyle=orthogonalEdgeStyle;rounded=0;orthogonalLoop=1;jettySize=auto;html=1;endArrow=none;endFill=0;" parent="1" source="YEMjm-N8hcutYp_lY4FU-53" target="YEMjm-N8hcutYp_lY4FU-59" edge="1">
                    <mxGeometry relative="1" as="geometry"/>
                </mxCell>
                <mxCell id="YEMjm-N8hcutYp_lY4FU-53" value="GameType" style="whiteSpace=wrap;html=1;align=center;" parent="1" vertex="1">
                    <mxGeometry x="1260" y="570" width="100" height="40" as="geometry"/>
                </mxCell>
                <mxCell id="YEMjm-N8hcutYp_lY4FU-54" value="Assault" style="whiteSpace=wrap;html=1;align=center;" parent="1" vertex="1">
                    <mxGeometry x="1130" y="800" width="100" height="40" as="geometry"/>
                </mxCell>
                <mxCell id="YEMjm-N8hcutYp_lY4FU-55" value="Control" style="whiteSpace=wrap;html=1;align=center;" parent="1" vertex="1">
                    <mxGeometry x="1260" y="800" width="100" height="40" as="geometry"/>
                </mxCell>
                <mxCell id="YEMjm-N8hcutYp_lY4FU-56" value="Escort" style="whiteSpace=wrap;html=1;align=center;" parent="1" vertex="1">
                    <mxGeometry x="1390" y="800" width="100" height="40" as="geometry"/>
                </mxCell>
                <mxCell id="YEMjm-N8hcutYp_lY4FU-57" value="Map" style="whiteSpace=wrap;html=1;align=center;" parent="1" vertex="1">
                    <mxGeometry x="900" y="570" width="100" height="40" as="geometry"/>
                </mxCell>
                <mxCell id="YEMjm-N8hcutYp_lY4FU-58" value="m" style="edgeStyle=orthogonalEdgeStyle;rounded=0;orthogonalLoop=1;jettySize=auto;html=1;endArrow=none;endFill=0;" parent="1" source="YEMjm-N8hcutYp_lY4FU-59" target="YEMjm-N8hcutYp_lY4FU-57" edge="1">
                    <mxGeometry relative="1" as="geometry"/>
                </mxCell>
                <mxCell id="YEMjm-N8hcutYp_lY4FU-59" value="is of" style="shape=rhombus;perimeter=rhombusPerimeter;whiteSpace=wrap;html=1;align=center;" parent="1" vertex="1">
                    <mxGeometry x="1090" y="560" width="120" height="60" as="geometry"/>
                </mxCell>
                <mxCell id="YEMjm-N8hcutYp_lY4FU-60" value="1" style="edgeStyle=orthogonalEdgeStyle;rounded=0;orthogonalLoop=1;jettySize=auto;html=1;endArrow=none;endFill=0;" parent="1" source="YEMjm-N8hcutYp_lY4FU-61" target="YEMjm-N8hcutYp_lY4FU-57" edge="1">
                    <mxGeometry relative="1" as="geometry"/>
                </mxCell>
                <mxCell id="YEMjm-N8hcutYp_lY4FU-61" value="is on" style="shape=rhombus;perimeter=rhombusPerimeter;whiteSpace=wrap;html=1;align=center;" parent="1" vertex="1">
                    <mxGeometry x="720" y="560" width="120" height="60" as="geometry"/>
                </mxCell>
                <mxCell id="YEMjm-N8hcutYp_lY4FU-62" value="m" style="edgeStyle=orthogonalEdgeStyle;rounded=0;orthogonalLoop=1;jettySize=auto;html=1;endArrow=none;endFill=0;entryX=1;entryY=0.5;entryDx=0;entryDy=0;exitX=0;exitY=0.5;exitDx=0;exitDy=0;" parent="1" source="YEMjm-N8hcutYp_lY4FU-64" target="YEMjm-N8hcutYp_lY4FU-3" edge="1">
                    <mxGeometry relative="1" as="geometry">
                        <mxPoint x="1620" y="740" as="targetPoint"/>
                        <mxPoint x="1360" y="480" as="sourcePoint"/>
                    </mxGeometry>
                </mxCell>
                <mxCell id="YEMjm-N8hcutYp_lY4FU-63" value="1" style="edgeStyle=orthogonalEdgeStyle;rounded=0;orthogonalLoop=1;jettySize=auto;html=1;exitX=0.5;exitY=1;exitDx=0;exitDy=0;entryX=0.5;entryY=0;entryDx=0;entryDy=0;endArrow=none;endFill=0;" parent="1" target="YEMjm-N8hcutYp_lY4FU-53" edge="1">
                    <mxGeometry relative="1" as="geometry">
                        <mxPoint x="1310" y="510" as="sourcePoint"/>
                    </mxGeometry>
                </mxCell>
                <mxCell id="YEMjm-N8hcutYp_lY4FU-64" value="is of" style="shape=rhombus;perimeter=rhombusPerimeter;whiteSpace=wrap;html=1;align=center;" parent="1" vertex="1">
                    <mxGeometry x="1250" y="450" width="120" height="60" as="geometry"/>
                </mxCell>
                <mxCell id="YEMjm-N8hcutYp_lY4FU-65" style="edgeStyle=orthogonalEdgeStyle;rounded=0;orthogonalLoop=1;jettySize=auto;html=1;exitX=0.5;exitY=0;exitDx=0;exitDy=0;entryX=0.5;entryY=1;entryDx=0;entryDy=0;endArrow=none;endFill=0;shape=link;" parent="1" source="YEMjm-N8hcutYp_lY4FU-69" target="YEMjm-N8hcutYp_lY4FU-53" edge="1">
                    <mxGeometry relative="1" as="geometry">
                        <mxPoint x="1269.48" y="1030" as="targetPoint"/>
                    </mxGeometry>
                </mxCell>
                <mxCell id="YEMjm-N8hcutYp_lY4FU-66" style="edgeStyle=orthogonalEdgeStyle;rounded=0;orthogonalLoop=1;jettySize=auto;html=1;exitX=0;exitY=0.5;exitDx=0;exitDy=0;entryX=0.5;entryY=0;entryDx=0;entryDy=0;" parent="1" source="YEMjm-N8hcutYp_lY4FU-69" target="YEMjm-N8hcutYp_lY4FU-54" edge="1">
                    <mxGeometry relative="1" as="geometry">
                        <mxPoint x="1329.48" y="900" as="targetPoint"/>
                        <Array as="points">
                            <mxPoint x="1180" y="700"/>
                        </Array>
                    </mxGeometry>
                </mxCell>
                <mxCell id="YEMjm-N8hcutYp_lY4FU-67" style="edgeStyle=orthogonalEdgeStyle;rounded=0;orthogonalLoop=1;jettySize=auto;html=1;exitX=0.5;exitY=1;exitDx=0;exitDy=0;entryX=0.5;entryY=0;entryDx=0;entryDy=0;" parent="1" source="YEMjm-N8hcutYp_lY4FU-69" target="YEMjm-N8hcutYp_lY4FU-55" edge="1">
                    <mxGeometry relative="1" as="geometry">
                        <mxPoint x="1469.48" y="900" as="targetPoint"/>
                    </mxGeometry>
                </mxCell>
                <mxCell id="YEMjm-N8hcutYp_lY4FU-68" style="edgeStyle=orthogonalEdgeStyle;rounded=0;orthogonalLoop=1;jettySize=auto;html=1;exitX=1;exitY=0.5;exitDx=0;exitDy=0;entryX=0.5;entryY=0;entryDx=0;entryDy=0;" parent="1" source="YEMjm-N8hcutYp_lY4FU-69" target="YEMjm-N8hcutYp_lY4FU-56" edge="1">
                    <mxGeometry relative="1" as="geometry">
                        <mxPoint x="1609.48" y="900" as="targetPoint"/>
                    </mxGeometry>
                </mxCell>
                <mxCell id="YEMjm-N8hcutYp_lY4FU-69" value="d" style="ellipse;whiteSpace=wrap;html=1;aspect=fixed;" parent="1" vertex="1">
                    <mxGeometry x="1290" y="680" width="40" height="40" as="geometry"/>
                </mxCell>
            </root>
        </mxGraphModel>
    </diagram>
    <diagram id="yOrsU5-xWTTZuwUldU5o" name="ER-Model">
        <mxGraphModel dx="606" dy="1894" grid="1" gridSize="10" guides="1" tooltips="1" connect="1" arrows="1" fold="1" page="1" pageScale="1" pageWidth="850" pageHeight="1100" math="0" shadow="0">
            <root>
                <mxCell id="0"/>
                <mxCell id="1" parent="0"/>
                <mxCell id="118" value="Account" style="whiteSpace=wrap;html=1;align=center;" parent="1" vertex="1">
                    <mxGeometry x="120" y="50" width="100" height="40" as="geometry"/>
                </mxCell>
                <mxCell id="119" value="1" style="edgeStyle=orthogonalEdgeStyle;rounded=0;orthogonalLoop=1;jettySize=auto;html=1;entryX=0.5;entryY=1;entryDx=0;entryDy=0;endArrow=none;endFill=0;" parent="1" source="120" target="143" edge="1">
                    <mxGeometry relative="1" as="geometry">
                        <mxPoint x="994.9999999999995" y="580" as="targetPoint"/>
                    </mxGeometry>
                </mxCell>
                <mxCell id="120" value="&lt;div&gt;Game&lt;/div&gt;" style="whiteSpace=wrap;html=1;align=center;" parent="1" vertex="1">
                    <mxGeometry x="730" y="510" width="100" height="40" as="geometry"/>
                </mxCell>
                <mxCell id="121" value="1" style="edgeStyle=orthogonalEdgeStyle;rounded=0;orthogonalLoop=1;jettySize=auto;html=1;exitX=0.5;exitY=0;exitDx=0;exitDy=0;entryX=0.5;entryY=1;entryDx=0;entryDy=0;endArrow=none;endFill=0;" parent="1" source="123" target="154" edge="1">
                    <mxGeometry relative="1" as="geometry"/>
                </mxCell>
                <mxCell id="122" value="1" style="edgeStyle=orthogonalEdgeStyle;rounded=0;orthogonalLoop=1;jettySize=auto;html=1;exitX=0;exitY=0.5;exitDx=0;exitDy=0;entryX=1;entryY=0.5;entryDx=0;entryDy=0;endArrow=none;endFill=0;" parent="1" source="123" target="156" edge="1">
                    <mxGeometry relative="1" as="geometry">
                        <Array as="points">
                            <mxPoint x="1560" y="-280"/>
                            <mxPoint x="1325" y="-280"/>
                            <mxPoint x="1325" y="-340"/>
                        </Array>
                    </mxGeometry>
                </mxCell>
                <mxCell id="123" value="Hero" style="whiteSpace=wrap;html=1;align=center;" parent="1" vertex="1">
                    <mxGeometry x="1560" y="-290" width="100" height="40" as="geometry"/>
                </mxCell>
                <mxCell id="124" value="DamageDealer" style="whiteSpace=wrap;html=1;align=center;" parent="1" vertex="1">
                    <mxGeometry x="1560" y="270" width="100" height="40" as="geometry"/>
                </mxCell>
                <mxCell id="125" value="Tank" style="whiteSpace=wrap;html=1;align=center;" parent="1" vertex="1">
                    <mxGeometry x="1430" y="270" width="100" height="40" as="geometry"/>
                </mxCell>
                <mxCell id="126" value="Support" style="whiteSpace=wrap;html=1;align=center;" parent="1" vertex="1">
                    <mxGeometry x="1690" y="270" width="100" height="40" as="geometry"/>
                </mxCell>
                <mxCell id="127" value="1" style="edgeStyle=orthogonalEdgeStyle;rounded=0;orthogonalLoop=1;jettySize=auto;html=1;entryX=1;entryY=0.5;entryDx=0;entryDy=0;endArrow=none;endFill=0;" parent="1" source="130" target="137" edge="1">
                    <mxGeometry relative="1" as="geometry"/>
                </mxCell>
                <mxCell id="128" value="1" style="edgeStyle=orthogonalEdgeStyle;rounded=0;orthogonalLoop=1;jettySize=auto;html=1;exitX=0.5;exitY=0;exitDx=0;exitDy=0;entryX=0.5;entryY=1;entryDx=0;entryDy=0;endArrow=none;endFill=0;" parent="1" source="130" target="146" edge="1">
                    <mxGeometry relative="1" as="geometry">
                        <Array as="points">
                            <mxPoint x="520" y="50"/>
                            <mxPoint x="520" y="-45"/>
                            <mxPoint x="580" y="-45"/>
                        </Array>
                    </mxGeometry>
                </mxCell>
                <mxCell id="129" value="m" style="edgeStyle=orthogonalEdgeStyle;rounded=0;orthogonalLoop=1;jettySize=auto;html=1;exitX=1;exitY=0.25;exitDx=0;exitDy=0;entryX=0;entryY=0.5;entryDx=0;entryDy=0;endArrow=none;endFill=0;" parent="1" source="130" target="164" edge="1">
                    <mxGeometry relative="1" as="geometry"/>
                </mxCell>
                <mxCell id="130" value="Player" style="whiteSpace=wrap;html=1;align=center;" parent="1" vertex="1">
                    <mxGeometry x="450" y="50" width="100" height="40" as="geometry"/>
                </mxCell>
                <mxCell id="131" value="m" style="edgeStyle=orthogonalEdgeStyle;rounded=0;orthogonalLoop=1;jettySize=auto;html=1;exitX=0.5;exitY=1;exitDx=0;exitDy=0;entryX=0.5;entryY=0;entryDx=0;entryDy=0;endArrow=none;endFill=0;" parent="1" source="132" target="154" edge="1">
                    <mxGeometry relative="1" as="geometry"/>
                </mxCell>
                <mxCell id="132" value="Ability" style="whiteSpace=wrap;html=1;align=center;" parent="1" vertex="1">
                    <mxGeometry x="1560" y="-540" width="100" height="40" as="geometry"/>
                </mxCell>
                <mxCell id="133" value="1" style="edgeStyle=orthogonalEdgeStyle;rounded=0;orthogonalLoop=1;jettySize=auto;html=1;exitX=1;exitY=0.5;exitDx=0;exitDy=0;entryX=0;entryY=0.5;entryDx=0;entryDy=0;endArrow=none;endFill=0;" parent="1" source="134" target="148" edge="1">
                    <mxGeometry relative="1" as="geometry"/>
                </mxCell>
                <mxCell id="134" value="Team" style="whiteSpace=wrap;html=1;align=center;" parent="1" vertex="1">
                    <mxGeometry x="730" y="260" width="100" height="40" as="geometry"/>
                </mxCell>
                <mxCell id="135" value="n" style="edgeStyle=orthogonalEdgeStyle;rounded=0;orthogonalLoop=1;jettySize=auto;html=1;exitX=0;exitY=0.5;exitDx=0;exitDy=0;entryX=0.5;entryY=0;entryDx=0;entryDy=0;endArrow=none;endFill=0;" parent="1" source="136" target="158" edge="1">
                    <mxGeometry relative="1" as="geometry"/>
                </mxCell>
                <mxCell id="136" value="Skin" style="whiteSpace=wrap;html=1;align=center;" parent="1" vertex="1">
                    <mxGeometry x="730" y="-360" width="100" height="40" as="geometry"/>
                </mxCell>
                <mxCell id="137" value="is" style="shape=rhombus;perimeter=rhombusPerimeter;whiteSpace=wrap;html=1;align=center;" parent="1" vertex="1">
                    <mxGeometry x="270" y="40" width="120" height="60" as="geometry"/>
                </mxCell>
                <mxCell id="138" value="1" style="edgeStyle=orthogonalEdgeStyle;rounded=0;orthogonalLoop=1;jettySize=auto;html=1;entryX=1;entryY=0.5;entryDx=0;entryDy=0;endArrow=none;endFill=0;" parent="1" target="118" edge="1">
                    <mxGeometry relative="1" as="geometry">
                        <mxPoint x="290" y="70" as="sourcePoint"/>
                        <mxPoint x="200" y="69.5" as="targetPoint"/>
                    </mxGeometry>
                </mxCell>
                <mxCell id="139" value="m" style="edgeStyle=orthogonalEdgeStyle;rounded=0;orthogonalLoop=1;jettySize=auto;html=1;endArrow=none;endFill=0;exitX=0.5;exitY=0;exitDx=0;exitDy=0;entryX=0.5;entryY=1;entryDx=0;entryDy=0;" parent="1" source="141" target="130" edge="1">
                    <mxGeometry relative="1" as="geometry">
                        <mxPoint x="520" y="180" as="sourcePoint"/>
                        <mxPoint x="500" y="80" as="targetPoint"/>
                        <Array as="points">
                            <mxPoint x="500" y="100"/>
                            <mxPoint x="500" y="100"/>
                        </Array>
                    </mxGeometry>
                </mxCell>
                <mxCell id="140" value="1" style="edgeStyle=orthogonalEdgeStyle;rounded=0;orthogonalLoop=1;jettySize=auto;html=1;entryX=0;entryY=0.5;entryDx=0;entryDy=0;endArrow=none;endFill=0;" parent="1" source="141" target="134" edge="1">
                    <mxGeometry relative="1" as="geometry"/>
                </mxCell>
                <mxCell id="141" value="is in" style="shape=rhombus;perimeter=rhombusPerimeter;whiteSpace=wrap;html=1;align=center;" parent="1" vertex="1">
                    <mxGeometry x="440" y="250" width="120" height="60" as="geometry"/>
                </mxCell>
                <mxCell id="142" value="m" style="edgeStyle=orthogonalEdgeStyle;rounded=0;orthogonalLoop=1;jettySize=auto;html=1;endArrow=none;endFill=0;entryX=0.5;entryY=1;entryDx=0;entryDy=0;" parent="1" source="143" target="134" edge="1">
                    <mxGeometry relative="1" as="geometry">
                        <mxPoint x="710" y="370" as="targetPoint"/>
                    </mxGeometry>
                </mxCell>
                <mxCell id="143" value="has" style="shape=rhombus;perimeter=rhombusPerimeter;whiteSpace=wrap;html=1;align=center;" parent="1" vertex="1">
                    <mxGeometry x="720" y="370" width="120" height="60" as="geometry"/>
                </mxCell>
                <mxCell id="144" value="1" style="edgeStyle=orthogonalEdgeStyle;rounded=0;orthogonalLoop=1;jettySize=auto;html=1;endArrow=none;endFill=0;entryX=0;entryY=0.5;entryDx=0;entryDy=0;exitX=1;exitY=0.5;exitDx=0;exitDy=0;" parent="1" source="167" target="123" edge="1">
                    <mxGeometry x="0.2" relative="1" as="geometry">
                        <Array as="points">
                            <mxPoint x="1450" y="-160"/>
                            <mxPoint x="1450" y="-260"/>
                            <mxPoint x="1560" y="-260"/>
                        </Array>
                        <mxPoint x="1320" y="-100" as="sourcePoint"/>
                        <mxPoint as="offset"/>
                    </mxGeometry>
                </mxCell>
                <mxCell id="145" value="1" style="edgeStyle=orthogonalEdgeStyle;rounded=0;orthogonalLoop=1;jettySize=auto;html=1;exitX=1;exitY=0.5;exitDx=0;exitDy=0;entryX=0;entryY=0.5;entryDx=0;entryDy=0;endArrow=none;endFill=0;" parent="1" source="146" target="166" edge="1">
                    <mxGeometry relative="1" as="geometry">
                        <Array as="points"/>
                    </mxGeometry>
                </mxCell>
                <mxCell id="146" value="selected" style="shape=rhombus;perimeter=rhombusPerimeter;whiteSpace=wrap;html=1;align=center;" parent="1" vertex="1">
                    <mxGeometry x="520" y="-190" width="120" height="60" as="geometry"/>
                </mxCell>
                <mxCell id="147" value="m" style="edgeStyle=orthogonalEdgeStyle;rounded=0;orthogonalLoop=1;jettySize=auto;html=1;exitX=0.5;exitY=0;exitDx=0;exitDy=0;entryX=0.5;entryY=1;entryDx=0;entryDy=0;endArrow=none;endFill=0;" parent="1" source="148" target="166" edge="1">
                    <mxGeometry x="-0.2308" relative="1" as="geometry">
                        <Array as="points">
                            <mxPoint x="1030" y="50"/>
                            <mxPoint x="1030" y="50"/>
                        </Array>
                        <mxPoint as="offset"/>
                    </mxGeometry>
                </mxCell>
                <mxCell id="148" value="has" style="shape=rhombus;perimeter=rhombusPerimeter;whiteSpace=wrap;html=1;align=center;" parent="1" vertex="1">
                    <mxGeometry x="970" y="250" width="120" height="60" as="geometry"/>
                </mxCell>
                <mxCell id="149" style="edgeStyle=orthogonalEdgeStyle;rounded=0;orthogonalLoop=1;jettySize=auto;html=1;exitX=0.5;exitY=0;exitDx=0;exitDy=0;endArrow=none;endFill=0;shape=link;entryX=0.5;entryY=1;entryDx=0;entryDy=0;" parent="1" source="153" target="159" edge="1">
                    <mxGeometry relative="1" as="geometry">
                        <mxPoint x="1680" y="120" as="targetPoint"/>
                    </mxGeometry>
                </mxCell>
                <mxCell id="150" style="edgeStyle=orthogonalEdgeStyle;rounded=0;orthogonalLoop=1;jettySize=auto;html=1;exitX=0.5;exitY=1;exitDx=0;exitDy=0;entryX=0.5;entryY=0;entryDx=0;entryDy=0;" parent="1" source="153" target="124" edge="1">
                    <mxGeometry relative="1" as="geometry">
                        <Array as="points"/>
                    </mxGeometry>
                </mxCell>
                <mxCell id="151" style="edgeStyle=orthogonalEdgeStyle;rounded=0;orthogonalLoop=1;jettySize=auto;html=1;exitX=0;exitY=0.5;exitDx=0;exitDy=0;" parent="1" source="153" target="125" edge="1">
                    <mxGeometry relative="1" as="geometry">
                        <Array as="points">
                            <mxPoint x="1480" y="150"/>
                        </Array>
                    </mxGeometry>
                </mxCell>
                <mxCell id="152" style="edgeStyle=orthogonalEdgeStyle;rounded=0;orthogonalLoop=1;jettySize=auto;html=1;exitX=1;exitY=0.5;exitDx=0;exitDy=0;entryX=0.5;entryY=0;entryDx=0;entryDy=0;" parent="1" source="153" target="126" edge="1">
                    <mxGeometry relative="1" as="geometry">
                        <Array as="points">
                            <mxPoint x="1740" y="150"/>
                        </Array>
                    </mxGeometry>
                </mxCell>
                <mxCell id="153" value="d" style="ellipse;whiteSpace=wrap;html=1;aspect=fixed;" parent="1" vertex="1">
                    <mxGeometry x="1590" y="130" width="40" height="40" as="geometry"/>
                </mxCell>
                <mxCell id="154" value="has" style="shape=rhombus;perimeter=rhombusPerimeter;whiteSpace=wrap;html=1;align=center;" parent="1" vertex="1">
                    <mxGeometry x="1550" y="-420" width="120" height="60" as="geometry"/>
                </mxCell>
                <mxCell id="155" value="m" style="edgeStyle=orthogonalEdgeStyle;rounded=0;orthogonalLoop=1;jettySize=auto;html=1;exitX=0;exitY=0.5;exitDx=0;exitDy=0;entryX=1;entryY=0.5;entryDx=0;entryDy=0;endArrow=none;endFill=0;" parent="1" source="156" target="136" edge="1">
                    <mxGeometry relative="1" as="geometry">
                        <Array as="points">
                            <mxPoint x="870" y="-340"/>
                            <mxPoint x="870" y="-340"/>
                        </Array>
                    </mxGeometry>
                </mxCell>
                <mxCell id="156" value="has" style="shape=rhombus;perimeter=rhombusPerimeter;whiteSpace=wrap;html=1;align=center;" parent="1" vertex="1">
                    <mxGeometry x="970" y="-370" width="120" height="60" as="geometry"/>
                </mxCell>
                <mxCell id="157" value="m" style="edgeStyle=orthogonalEdgeStyle;rounded=0;orthogonalLoop=1;jettySize=auto;html=1;exitX=0.5;exitY=1;exitDx=0;exitDy=0;entryX=0.25;entryY=0;entryDx=0;entryDy=0;endArrow=none;endFill=0;" parent="1" source="158" target="130" edge="1">
                    <mxGeometry relative="1" as="geometry">
                        <Array as="points">
                            <mxPoint x="420" y="-40"/>
                            <mxPoint x="475" y="-40"/>
                        </Array>
                    </mxGeometry>
                </mxCell>
                <mxCell id="158" value="selected" style="shape=rhombus;perimeter=rhombusPerimeter;whiteSpace=wrap;html=1;align=center;" parent="1" vertex="1">
                    <mxGeometry x="360" y="-190" width="120" height="60" as="geometry"/>
                </mxCell>
                <mxCell id="159" value="HeroType" style="whiteSpace=wrap;html=1;align=center;" parent="1" vertex="1">
                    <mxGeometry x="1560" y="40" width="100" height="40" as="geometry"/>
                </mxCell>
                <mxCell id="160" value="m" style="edgeStyle=orthogonalEdgeStyle;rounded=0;orthogonalLoop=1;jettySize=auto;html=1;exitX=0.5;exitY=0;exitDx=0;exitDy=0;entryX=0.5;entryY=1;entryDx=0;entryDy=0;endArrow=none;endFill=0;" parent="1" source="162" target="123" edge="1">
                    <mxGeometry relative="1" as="geometry"/>
                </mxCell>
                <mxCell id="161" value="1" style="edgeStyle=orthogonalEdgeStyle;rounded=0;orthogonalLoop=1;jettySize=auto;html=1;exitX=0.5;exitY=1;exitDx=0;exitDy=0;entryX=0.5;entryY=0;entryDx=0;entryDy=0;endArrow=none;endFill=0;" parent="1" source="162" target="159" edge="1">
                    <mxGeometry relative="1" as="geometry"/>
                </mxCell>
                <mxCell id="162" value="is of" style="shape=rhombus;perimeter=rhombusPerimeter;whiteSpace=wrap;html=1;align=center;" parent="1" vertex="1">
                    <mxGeometry x="1550" y="-160" width="120" height="60" as="geometry"/>
                </mxCell>
                <mxCell id="163" value="1" style="edgeStyle=orthogonalEdgeStyle;rounded=0;orthogonalLoop=1;jettySize=auto;html=1;exitX=1;exitY=0.5;exitDx=0;exitDy=0;entryX=0;entryY=0.5;entryDx=0;entryDy=0;endArrow=none;endFill=0;" parent="1" source="164" target="159" edge="1">
                    <mxGeometry relative="1" as="geometry">
                        <Array as="points">
                            <mxPoint x="930" y="60"/>
                            <mxPoint x="930" y="60"/>
                        </Array>
                    </mxGeometry>
                </mxCell>
                <mxCell id="164" value="selected" style="shape=rhombus;perimeter=rhombusPerimeter;whiteSpace=wrap;html=1;align=center;" parent="1" vertex="1">
                    <mxGeometry x="720" y="30" width="120" height="60" as="geometry"/>
                </mxCell>
                <mxCell id="165" value="m" style="edgeStyle=orthogonalEdgeStyle;rounded=0;orthogonalLoop=1;jettySize=auto;html=1;entryX=0;entryY=0.5;entryDx=0;entryDy=0;endArrow=none;endFill=0;exitX=1;exitY=0.5;exitDx=0;exitDy=0;" parent="1" source="166" target="167" edge="1">
                    <mxGeometry relative="1" as="geometry">
                        <Array as="points">
                            <mxPoint x="1100" y="-160"/>
                            <mxPoint x="1100" y="-160"/>
                        </Array>
                        <mxPoint x="1050" y="-110" as="sourcePoint"/>
                    </mxGeometry>
                </mxCell>
                <mxCell id="166" value="Player_Hero" style="whiteSpace=wrap;html=1;align=center;" parent="1" vertex="1">
                    <mxGeometry x="980" y="-180" width="100" height="40" as="geometry"/>
                </mxCell>
                <mxCell id="167" value="selected" style="shape=rhombus;perimeter=rhombusPerimeter;whiteSpace=wrap;html=1;align=center;" parent="1" vertex="1">
                    <mxGeometry x="1240" y="-190" width="120" height="60" as="geometry"/>
                </mxCell>
                <mxCell id="168" value="m" style="edgeStyle=orthogonalEdgeStyle;rounded=0;orthogonalLoop=1;jettySize=auto;html=1;endArrow=none;endFill=0;exitX=0.5;exitY=1;exitDx=0;exitDy=0;" parent="1" source="120" target="178" edge="1">
                    <mxGeometry relative="1" as="geometry">
                        <mxPoint x="1570" y="770" as="sourcePoint"/>
                    </mxGeometry>
                </mxCell>
                <mxCell id="169" value="1" style="edgeStyle=orthogonalEdgeStyle;rounded=0;orthogonalLoop=1;jettySize=auto;html=1;endArrow=none;endFill=0;" parent="1" source="170" target="176" edge="1">
                    <mxGeometry relative="1" as="geometry"/>
                </mxCell>
                <mxCell id="170" value="GameType" style="whiteSpace=wrap;html=1;align=center;" parent="1" vertex="1">
                    <mxGeometry x="1370" y="690" width="100" height="40" as="geometry"/>
                </mxCell>
                <mxCell id="171" value="Point-Payload" style="whiteSpace=wrap;html=1;align=center;" parent="1" vertex="1">
                    <mxGeometry x="1240" y="920" width="100" height="40" as="geometry"/>
                </mxCell>
                <mxCell id="172" value="Point" style="whiteSpace=wrap;html=1;align=center;" parent="1" vertex="1">
                    <mxGeometry x="1370" y="920" width="100" height="40" as="geometry"/>
                </mxCell>
                <mxCell id="173" value="Push" style="whiteSpace=wrap;html=1;align=center;" parent="1" vertex="1">
                    <mxGeometry x="1500" y="920" width="100" height="40" as="geometry"/>
                </mxCell>
                <mxCell id="174" value="Map" style="whiteSpace=wrap;html=1;align=center;" parent="1" vertex="1">
                    <mxGeometry x="970" y="690" width="100" height="40" as="geometry"/>
                </mxCell>
                <mxCell id="175" value="m" style="edgeStyle=orthogonalEdgeStyle;rounded=0;orthogonalLoop=1;jettySize=auto;html=1;endArrow=none;endFill=0;" parent="1" source="176" target="174" edge="1">
                    <mxGeometry relative="1" as="geometry"/>
                </mxCell>
                <mxCell id="176" value="is of" style="shape=rhombus;perimeter=rhombusPerimeter;whiteSpace=wrap;html=1;align=center;" parent="1" vertex="1">
                    <mxGeometry x="1160" y="680" width="120" height="60" as="geometry"/>
                </mxCell>
                <mxCell id="177" value="1" style="edgeStyle=orthogonalEdgeStyle;rounded=0;orthogonalLoop=1;jettySize=auto;html=1;endArrow=none;endFill=0;" parent="1" source="178" target="174" edge="1">
                    <mxGeometry relative="1" as="geometry"/>
                </mxCell>
                <mxCell id="178" value="is on" style="shape=rhombus;perimeter=rhombusPerimeter;whiteSpace=wrap;html=1;align=center;" parent="1" vertex="1">
                    <mxGeometry x="720" y="680" width="120" height="60" as="geometry"/>
                </mxCell>
                <mxCell id="179" value="m" style="edgeStyle=orthogonalEdgeStyle;rounded=0;orthogonalLoop=1;jettySize=auto;html=1;endArrow=none;endFill=0;entryX=1;entryY=0.5;entryDx=0;entryDy=0;" parent="1" source="181" target="120" edge="1">
                    <mxGeometry relative="1" as="geometry">
                        <mxPoint x="1620" y="790" as="targetPoint"/>
                    </mxGeometry>
                </mxCell>
                <mxCell id="180" value="1" style="edgeStyle=orthogonalEdgeStyle;rounded=0;orthogonalLoop=1;jettySize=auto;html=1;exitX=0.5;exitY=1;exitDx=0;exitDy=0;entryX=0.5;entryY=0;entryDx=0;entryDy=0;endArrow=none;endFill=0;" parent="1" source="181" target="170" edge="1">
                    <mxGeometry relative="1" as="geometry"/>
                </mxCell>
                <mxCell id="181" value="is of" style="shape=rhombus;perimeter=rhombusPerimeter;whiteSpace=wrap;html=1;align=center;" parent="1" vertex="1">
                    <mxGeometry x="1360" y="500" width="120" height="60" as="geometry"/>
                </mxCell>
                <mxCell id="182" style="edgeStyle=orthogonalEdgeStyle;rounded=0;orthogonalLoop=1;jettySize=auto;html=1;exitX=0.5;exitY=0;exitDx=0;exitDy=0;entryX=0.5;entryY=1;entryDx=0;entryDy=0;endArrow=none;endFill=0;shape=link;" parent="1" source="186" target="170" edge="1">
                    <mxGeometry relative="1" as="geometry">
                        <mxPoint x="1379.48" y="1150" as="targetPoint"/>
                    </mxGeometry>
                </mxCell>
                <mxCell id="183" style="edgeStyle=orthogonalEdgeStyle;rounded=0;orthogonalLoop=1;jettySize=auto;html=1;exitX=0;exitY=0.5;exitDx=0;exitDy=0;entryX=0.5;entryY=0;entryDx=0;entryDy=0;" parent="1" source="186" target="171" edge="1">
                    <mxGeometry relative="1" as="geometry">
                        <mxPoint x="1439.48" y="1020" as="targetPoint"/>
                        <Array as="points">
                            <mxPoint x="1290" y="820"/>
                        </Array>
                    </mxGeometry>
                </mxCell>
                <mxCell id="184" style="edgeStyle=orthogonalEdgeStyle;rounded=0;orthogonalLoop=1;jettySize=auto;html=1;exitX=0.5;exitY=1;exitDx=0;exitDy=0;entryX=0.5;entryY=0;entryDx=0;entryDy=0;" parent="1" source="186" target="172" edge="1">
                    <mxGeometry relative="1" as="geometry">
                        <mxPoint x="1579.48" y="1020" as="targetPoint"/>
                    </mxGeometry>
                </mxCell>
                <mxCell id="185" style="edgeStyle=orthogonalEdgeStyle;rounded=0;orthogonalLoop=1;jettySize=auto;html=1;exitX=1;exitY=0.5;exitDx=0;exitDy=0;entryX=0.5;entryY=0;entryDx=0;entryDy=0;" parent="1" source="186" target="173" edge="1">
                    <mxGeometry relative="1" as="geometry">
                        <mxPoint x="1719.48" y="1020" as="targetPoint"/>
                    </mxGeometry>
                </mxCell>
                <mxCell id="186" value="d" style="ellipse;whiteSpace=wrap;html=1;aspect=fixed;" parent="1" vertex="1">
                    <mxGeometry x="1400" y="800" width="40" height="40" as="geometry"/>
                </mxCell>
            </root>
        </mxGraphModel>
    </diagram>
    <diagram id="nOwZV87dMoem5lvSqCs4" name="Relational Diagram">
        <mxGraphModel dx="606" dy="1894" grid="1" gridSize="10" guides="1" tooltips="1" connect="1" arrows="1" fold="1" page="1" pageScale="1" pageWidth="850" pageHeight="1100" math="0" shadow="0">
            <root>
                <mxCell id="0"/>
                <mxCell id="1" parent="0"/>
                <mxCell id="Ww67sxyS59BsL1oNI7lo-1" value="" style="rounded=0;whiteSpace=wrap;html=1;" vertex="1" parent="1">
                    <mxGeometry x="10" y="-20" width="830" height="610" as="geometry"/>
                </mxCell>
                <mxCell id="Ww67sxyS59BsL1oNI7lo-2" value="Gametype" style="swimlane;fontStyle=0;childLayout=stackLayout;horizontal=1;startSize=30;horizontalStack=0;resizeParent=1;resizeParentMax=0;resizeLast=0;collapsible=1;marginBottom=0;whiteSpace=wrap;html=1;" vertex="1" parent="1">
                    <mxGeometry x="40" y="70" width="140" height="90" as="geometry"/>
                </mxCell>
                <mxCell id="Ww67sxyS59BsL1oNI7lo-3" value="&lt;b&gt;ID&lt;/b&gt;" style="text;strokeColor=#b85450;fillColor=#f8cecc;align=left;verticalAlign=middle;spacingLeft=4;spacingRight=4;overflow=hidden;points=[[0,0.5],[1,0.5]];portConstraint=eastwest;rotatable=0;whiteSpace=wrap;html=1;" vertex="1" parent="Ww67sxyS59BsL1oNI7lo-2">
                    <mxGeometry y="30" width="140" height="30" as="geometry"/>
                </mxCell>
                <mxCell id="Ww67sxyS59BsL1oNI7lo-4" value="Name" style="text;strokeColor=#d6b656;fillColor=#fff2cc;align=left;verticalAlign=middle;spacingLeft=4;spacingRight=4;overflow=hidden;points=[[0,0.5],[1,0.5]];portConstraint=eastwest;rotatable=0;whiteSpace=wrap;html=1;" vertex="1" parent="Ww67sxyS59BsL1oNI7lo-2">
                    <mxGeometry y="60" width="140" height="30" as="geometry"/>
                </mxCell>
                <mxCell id="Ww67sxyS59BsL1oNI7lo-5" value="Account" style="swimlane;fontStyle=0;childLayout=stackLayout;horizontal=1;startSize=30;horizontalStack=0;resizeParent=1;resizeParentMax=0;resizeLast=0;collapsible=1;marginBottom=0;whiteSpace=wrap;html=1;" vertex="1" parent="1">
                    <mxGeometry x="40" y="200" width="140" height="90" as="geometry"/>
                </mxCell>
                <mxCell id="Ww67sxyS59BsL1oNI7lo-6" value="&lt;b&gt;ID&lt;/b&gt;" style="text;strokeColor=#b85450;fillColor=#f8cecc;align=left;verticalAlign=middle;spacingLeft=4;spacingRight=4;overflow=hidden;points=[[0,0.5],[1,0.5]];portConstraint=eastwest;rotatable=0;whiteSpace=wrap;html=1;" vertex="1" parent="Ww67sxyS59BsL1oNI7lo-5">
                    <mxGeometry y="30" width="140" height="30" as="geometry"/>
                </mxCell>
                <mxCell id="Ww67sxyS59BsL1oNI7lo-7" value="Email" style="text;strokeColor=#d6b656;fillColor=#fff2cc;align=left;verticalAlign=middle;spacingLeft=4;spacingRight=4;overflow=hidden;points=[[0,0.5],[1,0.5]];portConstraint=eastwest;rotatable=0;whiteSpace=wrap;html=1;" vertex="1" parent="Ww67sxyS59BsL1oNI7lo-5">
                    <mxGeometry y="60" width="140" height="30" as="geometry"/>
                </mxCell>
                <mxCell id="Ww67sxyS59BsL1oNI7lo-8" value="Herotype" style="swimlane;fontStyle=0;childLayout=stackLayout;horizontal=1;startSize=30;horizontalStack=0;resizeParent=1;resizeParentMax=0;resizeLast=0;collapsible=1;marginBottom=0;whiteSpace=wrap;html=1;" vertex="1" parent="1">
                    <mxGeometry x="40" y="480" width="140" height="90" as="geometry"/>
                </mxCell>
                <mxCell id="Ww67sxyS59BsL1oNI7lo-9" value="&lt;b&gt;ID&lt;/b&gt;" style="text;strokeColor=#b85450;fillColor=#f8cecc;align=left;verticalAlign=middle;spacingLeft=4;spacingRight=4;overflow=hidden;points=[[0,0.5],[1,0.5]];portConstraint=eastwest;rotatable=0;whiteSpace=wrap;html=1;" vertex="1" parent="Ww67sxyS59BsL1oNI7lo-8">
                    <mxGeometry y="30" width="140" height="30" as="geometry"/>
                </mxCell>
                <mxCell id="Ww67sxyS59BsL1oNI7lo-10" value="name" style="text;strokeColor=#d6b656;fillColor=#fff2cc;align=left;verticalAlign=middle;spacingLeft=4;spacingRight=4;overflow=hidden;points=[[0,0.5],[1,0.5]];portConstraint=eastwest;rotatable=0;whiteSpace=wrap;html=1;" vertex="1" parent="Ww67sxyS59BsL1oNI7lo-8">
                    <mxGeometry y="60" width="140" height="30" as="geometry"/>
                </mxCell>
                <mxCell id="Ww67sxyS59BsL1oNI7lo-11" value="Hero" style="swimlane;fontStyle=0;childLayout=stackLayout;horizontal=1;startSize=30;horizontalStack=0;resizeParent=1;resizeParentMax=0;resizeLast=0;collapsible=1;marginBottom=0;whiteSpace=wrap;html=1;" vertex="1" parent="1">
                    <mxGeometry x="40" y="320" width="140" height="120" as="geometry"/>
                </mxCell>
                <mxCell id="Ww67sxyS59BsL1oNI7lo-12" value="&lt;b&gt;ID&lt;/b&gt;" style="text;strokeColor=#b85450;fillColor=#f8cecc;align=left;verticalAlign=middle;spacingLeft=4;spacingRight=4;overflow=hidden;points=[[0,0.5],[1,0.5]];portConstraint=eastwest;rotatable=0;whiteSpace=wrap;html=1;" vertex="1" parent="Ww67sxyS59BsL1oNI7lo-11">
                    <mxGeometry y="30" width="140" height="30" as="geometry"/>
                </mxCell>
                <mxCell id="Ww67sxyS59BsL1oNI7lo-13" value="&lt;u&gt;Herotype_ID&lt;/u&gt;" style="text;strokeColor=#6c8ebf;fillColor=#dae8fc;align=left;verticalAlign=middle;spacingLeft=4;spacingRight=4;overflow=hidden;points=[[0,0.5],[1,0.5]];portConstraint=eastwest;rotatable=0;whiteSpace=wrap;html=1;" vertex="1" parent="Ww67sxyS59BsL1oNI7lo-11">
                    <mxGeometry y="60" width="140" height="30" as="geometry"/>
                </mxCell>
                <mxCell id="Ww67sxyS59BsL1oNI7lo-14" value="name" style="text;strokeColor=#d6b656;fillColor=#fff2cc;align=left;verticalAlign=middle;spacingLeft=4;spacingRight=4;overflow=hidden;points=[[0,0.5],[1,0.5]];portConstraint=eastwest;rotatable=0;whiteSpace=wrap;html=1;" vertex="1" parent="Ww67sxyS59BsL1oNI7lo-11">
                    <mxGeometry y="90" width="140" height="30" as="geometry"/>
                </mxCell>
                <mxCell id="Ww67sxyS59BsL1oNI7lo-15" value="&lt;div&gt;&lt;br&gt;&lt;/div&gt;&lt;div&gt;&lt;br&gt;&lt;/div&gt;" style="text;strokeColor=none;fillColor=none;align=left;verticalAlign=middle;spacingLeft=4;spacingRight=4;overflow=hidden;points=[[0,0.5],[1,0.5]];portConstraint=eastwest;rotatable=0;whiteSpace=wrap;html=1;" vertex="1" parent="1">
                    <mxGeometry x="340" y="390" width="140" height="30" as="geometry"/>
                </mxCell>
                <mxCell id="Ww67sxyS59BsL1oNI7lo-16" value="Hero_Ability" style="swimlane;fontStyle=0;childLayout=stackLayout;horizontal=1;startSize=30;horizontalStack=0;resizeParent=1;resizeParentMax=0;resizeLast=0;collapsible=1;marginBottom=0;whiteSpace=wrap;html=1;" vertex="1" parent="1">
                    <mxGeometry x="260" y="70" width="140" height="150" as="geometry"/>
                </mxCell>
                <mxCell id="Ww67sxyS59BsL1oNI7lo-17" value="&lt;b&gt;ID&lt;/b&gt;" style="text;strokeColor=#b85450;fillColor=#f8cecc;align=left;verticalAlign=middle;spacingLeft=4;spacingRight=4;overflow=hidden;points=[[0,0.5],[1,0.5]];portConstraint=eastwest;rotatable=0;whiteSpace=wrap;html=1;" vertex="1" parent="Ww67sxyS59BsL1oNI7lo-16">
                    <mxGeometry y="30" width="140" height="30" as="geometry"/>
                </mxCell>
                <mxCell id="Ww67sxyS59BsL1oNI7lo-18" value="&lt;u&gt;Hero_ID&lt;/u&gt;" style="text;strokeColor=#6c8ebf;fillColor=#dae8fc;align=left;verticalAlign=middle;spacingLeft=4;spacingRight=4;overflow=hidden;points=[[0,0.5],[1,0.5]];portConstraint=eastwest;rotatable=0;whiteSpace=wrap;html=1;" vertex="1" parent="Ww67sxyS59BsL1oNI7lo-16">
                    <mxGeometry y="60" width="140" height="30" as="geometry"/>
                </mxCell>
                <mxCell id="Ww67sxyS59BsL1oNI7lo-19" value="&amp;nbsp;Ultimate" style="text;html=1;strokeColor=#d6b656;fillColor=#fff2cc;align=left;verticalAlign=middle;whiteSpace=wrap;rounded=0;" vertex="1" parent="Ww67sxyS59BsL1oNI7lo-16">
                    <mxGeometry y="90" width="140" height="30" as="geometry"/>
                </mxCell>
                <mxCell id="Ww67sxyS59BsL1oNI7lo-20" value="Name" style="text;strokeColor=#d6b656;fillColor=#fff2cc;align=left;verticalAlign=middle;spacingLeft=4;spacingRight=4;overflow=hidden;points=[[0,0.5],[1,0.5]];portConstraint=eastwest;rotatable=0;whiteSpace=wrap;html=1;" vertex="1" parent="Ww67sxyS59BsL1oNI7lo-16">
                    <mxGeometry y="120" width="140" height="30" as="geometry"/>
                </mxCell>
                <mxCell id="Ww67sxyS59BsL1oNI7lo-21" value="Map" style="swimlane;fontStyle=0;childLayout=stackLayout;horizontal=1;startSize=30;horizontalStack=0;resizeParent=1;resizeParentMax=0;resizeLast=0;collapsible=1;marginBottom=0;whiteSpace=wrap;html=1;" vertex="1" parent="1">
                    <mxGeometry x="260" y="250" width="140" height="120" as="geometry"/>
                </mxCell>
                <mxCell id="Ww67sxyS59BsL1oNI7lo-22" value="&lt;b&gt;ID&lt;/b&gt;" style="text;strokeColor=#b85450;fillColor=#f8cecc;align=left;verticalAlign=middle;spacingLeft=4;spacingRight=4;overflow=hidden;points=[[0,0.5],[1,0.5]];portConstraint=eastwest;rotatable=0;whiteSpace=wrap;html=1;" vertex="1" parent="Ww67sxyS59BsL1oNI7lo-21">
                    <mxGeometry y="30" width="140" height="30" as="geometry"/>
                </mxCell>
                <mxCell id="Ww67sxyS59BsL1oNI7lo-23" value="&lt;u&gt;Gametype_ID&lt;/u&gt;" style="text;strokeColor=#6c8ebf;fillColor=#dae8fc;align=left;verticalAlign=middle;spacingLeft=4;spacingRight=4;overflow=hidden;points=[[0,0.5],[1,0.5]];portConstraint=eastwest;rotatable=0;whiteSpace=wrap;html=1;" vertex="1" parent="Ww67sxyS59BsL1oNI7lo-21">
                    <mxGeometry y="60" width="140" height="30" as="geometry"/>
                </mxCell>
                <mxCell id="Ww67sxyS59BsL1oNI7lo-24" value="name" style="text;strokeColor=#d6b656;fillColor=#fff2cc;align=left;verticalAlign=middle;spacingLeft=4;spacingRight=4;overflow=hidden;points=[[0,0.5],[1,0.5]];portConstraint=eastwest;rotatable=0;whiteSpace=wrap;html=1;" vertex="1" parent="Ww67sxyS59BsL1oNI7lo-21">
                    <mxGeometry y="90" width="140" height="30" as="geometry"/>
                </mxCell>
                <mxCell id="Ww67sxyS59BsL1oNI7lo-25" value="Player" style="swimlane;fontStyle=0;childLayout=stackLayout;horizontal=1;startSize=30;horizontalStack=0;resizeParent=1;resizeParentMax=0;resizeLast=0;collapsible=1;marginBottom=0;whiteSpace=wrap;html=1;" vertex="1" parent="1">
                    <mxGeometry x="260" y="400" width="140" height="120" as="geometry"/>
                </mxCell>
                <mxCell id="Ww67sxyS59BsL1oNI7lo-26" value="&lt;b&gt;ID&lt;/b&gt;" style="text;strokeColor=#b85450;fillColor=#f8cecc;align=left;verticalAlign=middle;spacingLeft=4;spacingRight=4;overflow=hidden;points=[[0,0.5],[1,0.5]];portConstraint=eastwest;rotatable=0;whiteSpace=wrap;html=1;" vertex="1" parent="Ww67sxyS59BsL1oNI7lo-25">
                    <mxGeometry y="30" width="140" height="30" as="geometry"/>
                </mxCell>
                <mxCell id="Ww67sxyS59BsL1oNI7lo-27" value="&lt;u&gt;Account_ID&lt;/u&gt;" style="text;strokeColor=#6c8ebf;fillColor=#dae8fc;align=left;verticalAlign=middle;spacingLeft=4;spacingRight=4;overflow=hidden;points=[[0,0.5],[1,0.5]];portConstraint=eastwest;rotatable=0;whiteSpace=wrap;html=1;" vertex="1" parent="Ww67sxyS59BsL1oNI7lo-25">
                    <mxGeometry y="60" width="140" height="30" as="geometry"/>
                </mxCell>
                <mxCell id="Ww67sxyS59BsL1oNI7lo-28" value="name" style="text;strokeColor=#d6b656;fillColor=#fff2cc;align=left;verticalAlign=middle;spacingLeft=4;spacingRight=4;overflow=hidden;points=[[0,0.5],[1,0.5]];portConstraint=eastwest;rotatable=0;whiteSpace=wrap;html=1;" vertex="1" parent="Ww67sxyS59BsL1oNI7lo-25">
                    <mxGeometry y="90" width="140" height="30" as="geometry"/>
                </mxCell>
                <mxCell id="Ww67sxyS59BsL1oNI7lo-29" value="Selectedhero" style="swimlane;fontStyle=0;childLayout=stackLayout;horizontal=1;startSize=30;horizontalStack=0;resizeParent=1;resizeParentMax=0;resizeLast=0;collapsible=1;marginBottom=0;whiteSpace=wrap;html=1;" vertex="1" parent="1">
                    <mxGeometry x="480" y="70" width="140" height="150" as="geometry"/>
                </mxCell>
                <mxCell id="Ww67sxyS59BsL1oNI7lo-30" value="&lt;b&gt;Player_ID&lt;/b&gt;" style="text;strokeColor=#b85450;fillColor=#f8cecc;align=left;verticalAlign=middle;spacingLeft=4;spacingRight=4;overflow=hidden;points=[[0,0.5],[1,0.5]];portConstraint=eastwest;rotatable=0;whiteSpace=wrap;html=1;" vertex="1" parent="Ww67sxyS59BsL1oNI7lo-29">
                    <mxGeometry y="30" width="140" height="30" as="geometry"/>
                </mxCell>
                <mxCell id="Ww67sxyS59BsL1oNI7lo-31" value="&lt;b&gt;Team_ID&lt;/b&gt;" style="text;strokeColor=#b85450;fillColor=#f8cecc;align=left;verticalAlign=middle;spacingLeft=4;spacingRight=4;overflow=hidden;points=[[0,0.5],[1,0.5]];portConstraint=eastwest;rotatable=0;whiteSpace=wrap;html=1;" vertex="1" parent="Ww67sxyS59BsL1oNI7lo-29">
                    <mxGeometry y="60" width="140" height="30" as="geometry"/>
                </mxCell>
                <mxCell id="Ww67sxyS59BsL1oNI7lo-32" value="&lt;b&gt;Hero_ID&lt;/b&gt;" style="text;strokeColor=#b85450;fillColor=#f8cecc;align=left;verticalAlign=middle;spacingLeft=4;spacingRight=4;overflow=hidden;points=[[0,0.5],[1,0.5]];portConstraint=eastwest;rotatable=0;whiteSpace=wrap;html=1;" vertex="1" parent="Ww67sxyS59BsL1oNI7lo-29">
                    <mxGeometry y="90" width="140" height="30" as="geometry"/>
                </mxCell>
                <mxCell id="Ww67sxyS59BsL1oNI7lo-33" value="&lt;div align=&quot;left&quot;&gt;&lt;u&gt;&amp;nbsp;Skin_ID&lt;/u&gt;&lt;/div&gt;" style="text;html=1;strokeColor=#6c8ebf;fillColor=#dae8fc;align=left;verticalAlign=middle;whiteSpace=wrap;rounded=0;" vertex="1" parent="Ww67sxyS59BsL1oNI7lo-29">
                    <mxGeometry y="120" width="140" height="30" as="geometry"/>
                </mxCell>
                <mxCell id="Ww67sxyS59BsL1oNI7lo-34" value="Game" style="swimlane;fontStyle=0;childLayout=stackLayout;horizontal=1;startSize=30;horizontalStack=0;resizeParent=1;resizeParentMax=0;resizeLast=0;collapsible=1;marginBottom=0;whiteSpace=wrap;html=1;" vertex="1" parent="1">
                    <mxGeometry x="480" y="250" width="140" height="120" as="geometry"/>
                </mxCell>
                <mxCell id="Ww67sxyS59BsL1oNI7lo-35" value="&lt;b&gt;ID&lt;/b&gt;" style="text;strokeColor=#b85450;fillColor=#f8cecc;align=left;verticalAlign=middle;spacingLeft=4;spacingRight=4;overflow=hidden;points=[[0,0.5],[1,0.5]];portConstraint=eastwest;rotatable=0;whiteSpace=wrap;html=1;" vertex="1" parent="Ww67sxyS59BsL1oNI7lo-34">
                    <mxGeometry y="30" width="140" height="30" as="geometry"/>
                </mxCell>
                <mxCell id="Ww67sxyS59BsL1oNI7lo-36" value="&lt;u&gt;Map_ID&lt;/u&gt;" style="text;strokeColor=#6c8ebf;fillColor=#dae8fc;align=left;verticalAlign=middle;spacingLeft=4;spacingRight=4;overflow=hidden;points=[[0,0.5],[1,0.5]];portConstraint=eastwest;rotatable=0;whiteSpace=wrap;html=1;" vertex="1" parent="Ww67sxyS59BsL1oNI7lo-34">
                    <mxGeometry y="60" width="140" height="30" as="geometry"/>
                </mxCell>
                <mxCell id="Ww67sxyS59BsL1oNI7lo-37" value="&lt;u&gt;Gametype_ID&lt;/u&gt;" style="text;strokeColor=#6c8ebf;fillColor=#dae8fc;align=left;verticalAlign=middle;spacingLeft=4;spacingRight=4;overflow=hidden;points=[[0,0.5],[1,0.5]];portConstraint=eastwest;rotatable=0;whiteSpace=wrap;html=1;" vertex="1" parent="Ww67sxyS59BsL1oNI7lo-34">
                    <mxGeometry y="90" width="140" height="30" as="geometry"/>
                </mxCell>
                <mxCell id="Ww67sxyS59BsL1oNI7lo-38" value="Team" style="swimlane;fontStyle=0;childLayout=stackLayout;horizontal=1;startSize=30;horizontalStack=0;resizeParent=1;resizeParentMax=0;resizeLast=0;collapsible=1;marginBottom=0;whiteSpace=wrap;html=1;" vertex="1" parent="1">
                    <mxGeometry x="670" y="70" width="140" height="90" as="geometry"/>
                </mxCell>
                <mxCell id="Ww67sxyS59BsL1oNI7lo-39" value="&lt;b&gt;ID&lt;/b&gt;" style="text;strokeColor=#b85450;fillColor=#f8cecc;align=left;verticalAlign=middle;spacingLeft=4;spacingRight=4;overflow=hidden;points=[[0,0.5],[1,0.5]];portConstraint=eastwest;rotatable=0;whiteSpace=wrap;html=1;" vertex="1" parent="Ww67sxyS59BsL1oNI7lo-38">
                    <mxGeometry y="30" width="140" height="30" as="geometry"/>
                </mxCell>
                <mxCell id="Ww67sxyS59BsL1oNI7lo-40" value="&lt;u&gt;Game_ID&lt;/u&gt;" style="text;strokeColor=#6c8ebf;fillColor=#dae8fc;align=left;verticalAlign=middle;spacingLeft=4;spacingRight=4;overflow=hidden;points=[[0,0.5],[1,0.5]];portConstraint=eastwest;rotatable=0;whiteSpace=wrap;html=1;" vertex="1" parent="Ww67sxyS59BsL1oNI7lo-38">
                    <mxGeometry y="60" width="140" height="30" as="geometry"/>
                </mxCell>
                <mxCell id="Ww67sxyS59BsL1oNI7lo-41" value="Skin" style="swimlane;fontStyle=0;childLayout=stackLayout;horizontal=1;startSize=30;horizontalStack=0;resizeParent=1;resizeParentMax=0;resizeLast=0;collapsible=1;marginBottom=0;whiteSpace=wrap;html=1;" vertex="1" parent="1">
                    <mxGeometry x="480" y="400" width="140" height="120" as="geometry"/>
                </mxCell>
                <mxCell id="Ww67sxyS59BsL1oNI7lo-42" value="&lt;b&gt;ID&lt;/b&gt;" style="text;strokeColor=#b85450;fillColor=#f8cecc;align=left;verticalAlign=middle;spacingLeft=4;spacingRight=4;overflow=hidden;points=[[0,0.5],[1,0.5]];portConstraint=eastwest;rotatable=0;whiteSpace=wrap;html=1;" vertex="1" parent="Ww67sxyS59BsL1oNI7lo-41">
                    <mxGeometry y="30" width="140" height="30" as="geometry"/>
                </mxCell>
                <mxCell id="Ww67sxyS59BsL1oNI7lo-43" value="&lt;u&gt;Hero_ID&lt;/u&gt;" style="text;strokeColor=#6c8ebf;fillColor=#dae8fc;align=left;verticalAlign=middle;spacingLeft=4;spacingRight=4;overflow=hidden;points=[[0,0.5],[1,0.5]];portConstraint=eastwest;rotatable=0;whiteSpace=wrap;html=1;" vertex="1" parent="Ww67sxyS59BsL1oNI7lo-41">
                    <mxGeometry y="60" width="140" height="30" as="geometry"/>
                </mxCell>
                <mxCell id="Ww67sxyS59BsL1oNI7lo-44" value="&lt;div align=&quot;left&quot;&gt;&amp;nbsp;filename&lt;/div&gt;" style="text;html=1;strokeColor=#d6b656;fillColor=#fff2cc;align=left;verticalAlign=middle;whiteSpace=wrap;rounded=0;" vertex="1" parent="Ww67sxyS59BsL1oNI7lo-41">
                    <mxGeometry y="90" width="140" height="30" as="geometry"/>
                </mxCell>
                <mxCell id="Ww67sxyS59BsL1oNI7lo-45" style="edgeStyle=orthogonalEdgeStyle;rounded=0;orthogonalLoop=1;jettySize=auto;html=1;entryX=0;entryY=0.5;entryDx=0;entryDy=0;" edge="1" parent="1" source="Ww67sxyS59BsL1oNI7lo-3" target="Ww67sxyS59BsL1oNI7lo-23">
                    <mxGeometry relative="1" as="geometry"/>
                </mxCell>
                <mxCell id="Ww67sxyS59BsL1oNI7lo-46" value="" style="edgeStyle=orthogonalEdgeStyle;rounded=0;orthogonalLoop=1;jettySize=auto;html=1;entryX=1;entryY=0.5;entryDx=0;entryDy=0;" edge="1" parent="1" source="Ww67sxyS59BsL1oNI7lo-13" target="Ww67sxyS59BsL1oNI7lo-9">
                    <mxGeometry relative="1" as="geometry"/>
                </mxCell>
                <mxCell id="Ww67sxyS59BsL1oNI7lo-47" style="edgeStyle=orthogonalEdgeStyle;rounded=0;orthogonalLoop=1;jettySize=auto;html=1;exitX=0;exitY=0.5;exitDx=0;exitDy=0;entryX=1;entryY=0.5;entryDx=0;entryDy=0;" edge="1" parent="1" source="Ww67sxyS59BsL1oNI7lo-27" target="Ww67sxyS59BsL1oNI7lo-6">
                    <mxGeometry relative="1" as="geometry">
                        <Array as="points">
                            <mxPoint x="210" y="475"/>
                            <mxPoint x="210" y="245"/>
                        </Array>
                    </mxGeometry>
                </mxCell>
                <mxCell id="Ww67sxyS59BsL1oNI7lo-48" style="edgeStyle=orthogonalEdgeStyle;rounded=0;orthogonalLoop=1;jettySize=auto;html=1;" edge="1" parent="1" source="Ww67sxyS59BsL1oNI7lo-43">
                    <mxGeometry relative="1" as="geometry">
                        <mxPoint x="180" y="360" as="targetPoint"/>
                        <Array as="points">
                            <mxPoint x="410" y="475"/>
                            <mxPoint x="410" y="380"/>
                            <mxPoint x="190" y="380"/>
                            <mxPoint x="190" y="360"/>
                        </Array>
                    </mxGeometry>
                </mxCell>
                <mxCell id="Ww67sxyS59BsL1oNI7lo-49" style="edgeStyle=orthogonalEdgeStyle;rounded=0;orthogonalLoop=1;jettySize=auto;html=1;entryX=1;entryY=0.5;entryDx=0;entryDy=0;" edge="1" parent="1" source="Ww67sxyS59BsL1oNI7lo-36" target="Ww67sxyS59BsL1oNI7lo-22">
                    <mxGeometry relative="1" as="geometry"/>
                </mxCell>
                <mxCell id="Ww67sxyS59BsL1oNI7lo-50" style="edgeStyle=orthogonalEdgeStyle;rounded=0;orthogonalLoop=1;jettySize=auto;html=1;entryX=1.023;entryY=0.662;entryDx=0;entryDy=0;entryPerimeter=0;" edge="1" parent="1" source="Ww67sxyS59BsL1oNI7lo-37" target="Ww67sxyS59BsL1oNI7lo-3">
                    <mxGeometry relative="1" as="geometry">
                        <Array as="points">
                            <mxPoint x="460" y="355"/>
                            <mxPoint x="460" y="60"/>
                            <mxPoint x="250" y="60"/>
                            <mxPoint x="250" y="120"/>
                        </Array>
                    </mxGeometry>
                </mxCell>
                <mxCell id="Ww67sxyS59BsL1oNI7lo-51" style="edgeStyle=orthogonalEdgeStyle;rounded=0;orthogonalLoop=1;jettySize=auto;html=1;entryX=1;entryY=0.5;entryDx=0;entryDy=0;" edge="1" parent="1" source="Ww67sxyS59BsL1oNI7lo-39" target="Ww67sxyS59BsL1oNI7lo-31">
                    <mxGeometry relative="1" as="geometry"/>
                </mxCell>
                <mxCell id="Ww67sxyS59BsL1oNI7lo-52" style="edgeStyle=orthogonalEdgeStyle;rounded=0;orthogonalLoop=1;jettySize=auto;html=1;" edge="1" parent="1" source="Ww67sxyS59BsL1oNI7lo-40" target="Ww67sxyS59BsL1oNI7lo-35">
                    <mxGeometry relative="1" as="geometry">
                        <Array as="points">
                            <mxPoint x="650" y="145"/>
                            <mxPoint x="650" y="295"/>
                        </Array>
                    </mxGeometry>
                </mxCell>
                <mxCell id="Ww67sxyS59BsL1oNI7lo-53" style="edgeStyle=orthogonalEdgeStyle;rounded=0;orthogonalLoop=1;jettySize=auto;html=1;entryX=0;entryY=0.25;entryDx=0;entryDy=0;" edge="1" parent="1" source="Ww67sxyS59BsL1oNI7lo-42" target="Ww67sxyS59BsL1oNI7lo-33">
                    <mxGeometry relative="1" as="geometry">
                        <Array as="points">
                            <mxPoint x="450" y="445"/>
                            <mxPoint x="450" y="198"/>
                        </Array>
                    </mxGeometry>
                </mxCell>
                <mxCell id="Ww67sxyS59BsL1oNI7lo-54" style="edgeStyle=orthogonalEdgeStyle;rounded=0;orthogonalLoop=1;jettySize=auto;html=1;exitX=1;exitY=0.5;exitDx=0;exitDy=0;" edge="1" parent="1" source="Ww67sxyS59BsL1oNI7lo-26" target="Ww67sxyS59BsL1oNI7lo-30">
                    <mxGeometry relative="1" as="geometry">
                        <Array as="points">
                            <mxPoint x="430" y="445"/>
                            <mxPoint x="430" y="115"/>
                        </Array>
                    </mxGeometry>
                </mxCell>
                <mxCell id="Ww67sxyS59BsL1oNI7lo-55" style="edgeStyle=orthogonalEdgeStyle;rounded=0;orthogonalLoop=1;jettySize=auto;html=1;entryX=0;entryY=0.5;entryDx=0;entryDy=0;" edge="1" parent="1" source="Ww67sxyS59BsL1oNI7lo-12" target="Ww67sxyS59BsL1oNI7lo-32">
                    <mxGeometry relative="1" as="geometry">
                        <Array as="points">
                            <mxPoint x="240" y="365"/>
                            <mxPoint x="240" y="240"/>
                            <mxPoint x="440" y="240"/>
                            <mxPoint x="440" y="175"/>
                        </Array>
                    </mxGeometry>
                </mxCell>
            </root>
        </mxGraphModel>
    </diagram>
</mxfile>